/* XPM */
static char *_8fef15bd765414ebfb9d12a8c36b73749meYGhbaY9tjJnR[] = {
/* columns rows colors chars-per-pixel */
"64 63 11 1 ",
"  c None",
". c #394778",
"X c #7A444A",
"o c #A05B53",
"O c #BF7958",
"+ c #EEA160",
"@ c #3978A8",
"# c #28CCDF",
"$ c #CFC6B8",
"% c #8AEBF1",
"& c #DFF6F5",
/* pixels */
"                                                                ",
"                                                                ",
"                                                                ",
"                                                                ",
"                                                                ",
"                                                                ",
"                                                                ",
"                                                                ",
"                          ++++++++++                            ",
"                          ++++++++++                            ",
"                        ++++++++++++OO                          ",
"                        ++++++++++++OO                          ",
"                        OO++++++OOOOXX                          ",
"                        OO++++++OOOOXX                          ",
"                        OOOOooooooXXXX                          ",
"                        OOOOooooooXXXX                          ",
"                        ooOOooooooXXXX                          ",
"                        ooOOooooooXXXX                          ",
"                        ooooooooXXXXXX                          ",
"                        ooooooooXXXXXX                          ",
"                      &&ooooooooXXXXXX&&                        ",
"                      &&ooooooooXXXXXX&&                        ",
"                    &&&&&&ooooXXXXXX&&&&&&                      ",
"                    &&&&&&ooooXXXXXX&&&&&&                      ",
"                &&&&  &&oo&&&&&&&&&&XX&&  &&&&                  ",
"                &&&&  &&oo&&&&&&&&&&XX&&  &&&&                  ",
"            &&&&      &&  ooooXXXXXX  &&      &&&&              ",
"            &&&&      &&  ooooXXXXXX  &&      &&&&              ",
"          &&            &&%%XXXXXX##&&            &&            ",
"          &&            &&%%XXXXXX##&&            &&            ",
"        &&  &&&&    %%%%%%%%%%%%%%########    &&&&  &&          ",
"        &&  &&&&    %%%%%%%%%%%%%%########    &&&&  &&          ",
"        &&      &&&&%%%%%%%%%%%%%%%%######&&&&      &&          ",
"        &&      &&&&%%%%%%%%%%%%%%%%######&&&&      &&          ",
"        &&    %%%%%%&&&&%%%%%%%%%%%%##&&&&######    &&          ",
"        &&    %%%%%%&&&&%%%%%%%%%%%%##&&&&######    &&          ",
"        &&  &&&&%%%%%%%%&&&&%%%%%%&&&&########@@&&  &&          ",
"        &&  &&&&%%%%%%%%&&&&%%%%%%&&&&########@@&&  &&          ",
"        &&  &&&&&&@@%%%%%%%%&&&&&&########@@@@..&&  &&          ",
"        &&  &&&&&&@@%%%%%%%%&&&&&&########@@@@..&&  &&          ",
"        &&    @@&&@@@@@@%%%%##########@@@@@@....    &&          ",
"        &&    @@&&@@@@@@%%%%##########@@@@@@....    &&          ",
"        &&  &&@@@@@@@@@@@@@@@@&&@@@@@@@@@@......&&  &&          ",
"        &&  &&@@@@@@@@@@@@@@@@&&@@@@@@@@@@......&&  &&          ",
"        &&  $$..&&..@@@@@@@@@@&&@@@@@@@@....&&..$$  &&          ",
"        &&  $$..&&..@@@@@@@@@@&&@@@@@@@@....&&..$$  &&          ",
"          &&      ......@@@@@@&&@@@@........      &&            ",
"          &&      ......@@@@@@&&@@@@........      &&            ",
"            &&&&      &&......&&......&&      &&&&              ",
"            &&&&      &&......&&......&&      &&&&              ",
"                &&&&      &&..&&....      &&&&                  ",
"                &&&&      &&..&&....      &&&&                  ",
"                    &&&&      &&      &&&&                      ",
"                    &&&&      &&      &&&&                      ",
"                        &&&&      &&&&                          ",
"                        &&&&      &&&&                          ",
"                            &&&&&&                              ",
"                            &&&&&&                              ",
"                                                                ",
"                                                                ",
"                                                                ",
"                                                                ",
"                                                                "
};
