/* XPM */
static char *_3f8bfbeddef404a91983befef57f449X1lNV2VRPHiYhrO2[] = {
/* columns rows colors chars-per-pixel */
"64 64 11 1 ",
"  c None",
". c #394778",
"X c #7A444A",
"o c #A05B53",
"O c #BF7958",
"+ c #EEA160",
"@ c #3978A8",
"# c #28CCDF",
"$ c #CFC6B8",
"% c #8AEBF1",
"& c #DFF6F5",
/* pixels */
"                                                                ",
"                                                                ",
"                                                                ",
"                                                                ",
"                                                                ",
"                                                                ",
"                                                                ",
"                            ++++++++++                          ",
"                            ++++++++++                          ",
"                          ++++++++++++OO                        ",
"                          ++++++++++++OO                        ",
"                          OO++++++OOOOXX                        ",
"                          OO++++++OOOOXX                        ",
"                          OOOOooooooXXXX                        ",
"                          OOOOooooooXXXX                        ",
"                          ooOOooooooXXXX                        ",
"                          ooOOooooooXXXX                        ",
"                          ooooooooXXXXXX                        ",
"                          ooooooooXXXXXX                        ",
"                        &&ooooooooXXXXXX&&                      ",
"                        &&ooooooooXXXXXX&&                      ",
"                      &&&&&&ooooXXXXXX&&&&&&                    ",
"                      &&&&&&ooooXXXXXX&&&&&&                    ",
"                  &&&&  &&oo&&&&&&&&&&XX&&  &&&&                ",
"                  &&&&  &&oo&&&&&&&&&&XX&&  &&&&                ",
"              &&&&      &&  ooooXXXXXX  &&      &&&&            ",
"              &&&&      &&  ooooXXXXXX  &&      &&&&            ",
"            &&            &&  XXXXXX  &&            &&          ",
"            &&            &&  XXXXXX  &&            &&          ",
"          &&  &&&&            %%%%%%            &&&&  &&        ",
"          &&  &&&&            %%%%%%            &&&&  &&        ",
"          &&      &&&&    %%%%%%%%%%%%##    &&&&      &&        ",
"          &&      &&&&    %%%%%%%%%%%%##    &&&&      &&        ",
"          &&          &&&&%%%%%%%%%%%%%%&&&&          &&        ",
"          &&          &&&&%%%%%%%%%%%%%%&&&&          &&        ",
"          &&  &&&&  %%%%%%&&&&%%%%%%&&&&%%######  &&  &&        ",
"          &&  &&&&  %%%%%%&&&&%%%%%%&&&&%%######  &&  &&        ",
"          &&  &&&&&&%%%%%%%%%%&&&&&&%%%%%%%%######&&  &&        ",
"          &&  &&&&&&%%%%%%%%%%&&&&&&%%%%%%%%######&&  &&        ",
"          &&    @@&&%%%%%%%%%%%%%%%%%%%%%%######@@    &&        ",
"          &&    @@&&%%%%%%%%%%%%%%%%%%%%%%######@@    &&        ",
"          &&  &&@@@@@@%%%%%%%%%%&&%%%%######@@@@@@&&  &&        ",
"          &&  &&@@@@@@%%%%%%%%%%&&%%%%######@@@@@@&&  &&        ",
"          &&  $$..&&@@@@@@##%%%%&&%%####@@@@@@&&..$$  &&        ",
"          &&  $$..&&@@@@@@##%%%%&&%%####@@@@@@&&..$$  &&        ",
"            &&      ..@@@@@@@@##&&##@@@@@@....      &&          ",
"            &&      ..@@@@@@@@##&&##@@@@@@....      &&          ",
"              &&&&      &&..@@@@&&@@@@..&&      &&&&            ",
"              &&&&      &&..@@@@&&@@@@..&&      &&&&            ",
"                  &&&&      &&..&&....      &&&&                ",
"                  &&&&      &&..&&....      &&&&                ",
"                      &&&&      &&      &&&&                    ",
"                      &&&&      &&      &&&&                    ",
"                          &&&&      &&&&                        ",
"                          &&&&      &&&&                        ",
"                              &&&&&&                            ",
"                              &&&&&&                            ",
"                                                                ",
"                                                                ",
"                                                                ",
"                                                                ",
"                                                                ",
"                                                                ",
"                                                                "
};
