/* XPM */
static char *result[] = {
/* columns rows colors chars-per-pixel */
"64 64 30 1 ",
"  c None",
". c #534751",
"X c #574C55",
"o c #5B5059",
"O c #6D646C",
"+ c #776E76",
"@ c #7B7279",
"# c #7D757C",
"$ c #81787F",
"% c #837B82",
"& c #888087",
"* c #8B8389",
"= c #948D93",
"- c #9B959A",
"; c #A0999F",
": c #A39DA2",
"> c #A9A3A8",
", c #AFAAAE",
"< c #B9B5B9",
"1 c #BBB6BA",
"2 c #BEB9BD",
"3 c #C0BCC0",
"4 c #C2BEC1",
"5 c #C3BFC3",
"6 c #C5C1C4",
"7 c #C7C3C6",
"8 c #C8C4C7",
"9 c #D7D5D7",
"0 c #DAD7D9",
"q c white",
/* pixels */
"                                                                ",
"                                                                ",
"                                                                ",
"                                                                ",
"                                   9qqq,                        ",
"                                   0qqq<                        ",
"                                   0qqq<                        ",
"                                   0qqq<                        ",
"                                   0qqq<                        ",
"                                   0qqq<                        ",
"                                   0qqq<                        ",
"                                   0qqq<                        ",
"                               38882<<<&                        ",
"                               qqqq:                            ",
"                               qqqq:                            ",
"                               qqqq:                            ",
"                               qqqq:                            ",
"                               qqqq:                            ",
"                               qqqq:                            ",
"                               qqqq:                            ",
"                               qqqq:                            ",
"                               qqqq:                            ",
"                               qqqq:                            ",
"                               qqqq:                            ",
"                           $$$$0qqq-                            ",
"                           qqqq%                                ",
"                           qqqq%                                ",
"                           qqqq%                                ",
"                       ....qqqq%                                ",
"                      +qqqqqqqq%                                ",
"                      +qqqqqqqq%                                ",
"                  =qqqqqqqqqqqq%                                ",
"                  -qqqqqqqqqqqq%                                ",
"              >qqq0############0qqq-                            ",
"              ,qqq0            qqqq:                            ",
"              O***$            qqqq:                            ",
"                               qqqq:                            ",
"                               qqqq:                            ",
"                               qqqq:                            ",
"                               qqqq:                            ",
"                               qqqq:                            ",
"                           88881<<<7888-                        ",
"                           qqqq%   0qqq<                        ",
"                           qqqq%   0qqq<                        ",
"                           qqqq%   0qqq<                        ",
"                           qqqq%   ,8qq<                        ",
"                           qqqq%     9q<                        ",
"                           qqqq%     ,93,*                      ",
"                           qqqq%       8q6                      ",
"                      o;;;;0000+       8q6                      ",
"                      +qqqqX           8q6                      ",
"                      +qqqqX           <05=@                    ",
"                      +qqqqX             3q8                    ",
"                      +qqqqX             <q4                    ",
"                      +qqqqX                                    ",
"                      +qqqqX                                    ",
"                      +qqqqX                                    ",
"                      +qqqqX                                    ",
"                      +qqqqX                                    ",
"                      +qqqqX                                    ",
"                      +qqqqX                                    ",
"                      +qqqqX                                    ",
"                      +qqqqX                                    ",
"                      +qqqqX                                    "
};
