/* XPM */
static char *result[] = {
/* columns rows colors chars-per-pixel */
"64 64 51 1 ",
"  c None",
". c #4F434D",
"X c #51454F",
"o c #534751",
"O c #554953",
"+ c #574C55",
"@ c #594E57",
"# c #5B5059",
"$ c #5E535C",
"% c #60555E",
"& c #625860",
"* c #6D646C",
"= c #746A72",
"- c #776E76",
"; c #797078",
": c #7B7279",
"> c #7D757C",
", c #7F777E",
"< c #81787F",
"1 c #837B82",
"2 c #857D84",
"3 c #867E85",
"4 c #888087",
"5 c #8B8389",
"6 c #948D93",
"7 c #9B959A",
"8 c #9D969C",
"9 c #9E989D",
"0 c #A0999F",
"q c #A29BA1",
"w c #A39DA2",
"e c #A49EA3",
"r c #A59FA4",
"t c #A7A1A6",
"y c #A9A3A8",
"u c #AFAAAE",
"i c #B9B5B9",
"p c #BBB6BA",
"a c #BCB8BB",
"s c #BEB9BD",
"d c #BFBBBE",
"f c #C0BCC0",
"g c #C2BEC1",
"h c #C3BFC3",
"j c #C5C1C4",
"k c #C7C3C6",
"l c #C8C4C7",
"z c #D7D5D7",
"x c #D8D6D8",
"c c #DAD7D9",
"v c white",
/* pixels */
"                         ....XXXXooooXXXX....                   ",
"                         ....XXXXooooXXXX....                   ",
"                         ....XXXXooooXXXX....                   ",
"                        .ooo$;;;;,,,,;;;;$ooo.                  ",
"                        .ooo$;;;;,,,,;;;;$ooo.                  ",
"                        .ooo$;;;;,,,,;;;;$ooo.                  ",
"                        .ooo$;;;;,,,,;;;;$ooo.                  ",
"                     ...o@@@*777evvvvq777*+++X                  ",
"                     ...o###*000yvvvvt888*+++X                  ",
"                     ...o###*000yvvvvt888*+++X                  ",
"                     ...o###*000yvvvvt888*+++X                  ",
"                    .XXX&---4iiisvvvvy000*+++X                  ",
"                    Xooo&<<<6dddjvvvvy000*+++X                  ",
"                    Xooo&<<<6dddjvvvvy000*+++X                  ",
"                    Xooo&<<<6dddjvvvvy000*+++X                  ",
"                    X+++=666ycccccccc6666&OOO.                  ",
"                    o@@@;qqqpvvvvffff4111%ooo.                  ",
"                    o@@@;qqqpvvvvffff4111%ooo.                  ",
"                    o@@@;qqqpvvvvffff4111%ooo.                  ",
"                    O###<uuuhvvvvdddd>===#XXX.                  ",
"                ....+%%%5aaalvvvvaaaa*%%%o...                   ",
"                ....+%%%5aaalvvvvaaaa*%%%o...                   ",
"                ....+%%%5aaalvvvvaaaa*%%%o...                   ",
"                XXXX%***6ssslvvvviiii&$$$o...                   ",
"            ....O+++=3339gggzvvvvqqqq%@@@.                      ",
"            ....O+++=3339gggzvvvvqqqq%@@@.                      ",
"            ....O+++=3339gggzvvvvqqqq%@@@.                      ",
"            ....@$$$:666ylllzvvvv9999%@@@.                      ",
"            XXXX*>>>0aaazvvvvgggd2222@OOO.                      ",
"            XXXX*>>>0aaazvvvvgggd2222@OOO.                      ",
"            XXXX*>>>0aaazvvvvgggd2222@OOO.                      ",
"            XXXX*>>>qaaazvvvvgggd2222@OOO.                      ",
"            Xooo=<<<lvvvvvvvvhhhf2222@OOO.                      ",
"            Xooo=<<<lvvvvvvvvhhhf2222@OOO.                      ",
"            Xooozvvvvvvvvvvvvhhhf2222@OOO.                      ",
"            Xooozvvvvvvvvvvvvhhhf2222@OOO.                      ",
"            cvvvd666tiiijccccvvvv0000&###X...                   ",
"            cvvvp:::6tttizzzcvvvveeee&###X...                   ",
"            15551:::6tttizzzcvvvveeee&###X...                   ",
"            XXXX*:::6tttizzzcvvvveeee&###X...                   ",
"            ....$&&&>666ylllzvvvviiii>---#XXX.                  ",
"            ....O@@@=555wkkkzvvvvdddd2,,,$XXX.                  ",
"            ....O@@@=555wkkkzvvvvdddd2,,,$XXX.                  ",
"            ....O@@@=555wkkkzvvvvdddd2,,,$XXX.                  ",
"            ....+###,777pcccccccccccc5,,,$ooo.                  ",
"            ....+###2eeelvvvvxxxcvvvv5,,,$ooo.                  ",
"            ....+###2eeelvvvvxxxcvvvv5,,,$ooo.                  ",
"            ....+###2eeelvvvvxxxcvvvv5,,,$ooo.                  ",
"            .XXX&***6uuuzvvvvllllzzvv5:::$ooo.                  ",
"            Xooo=<<<wdddxvvvvfffs33vv4---#XXX.                  ",
"            Xooo=<<<wdddxvvvvfffs33ccai1-#XXX.                  ",
"            Xooo=<<<wdddxvvvvfffs3333vv6-#XXX.                  ",
"            oOOO:555izzzcvvvcuuuu::::vv5*+XXX.                  ",
"            +@@@5qqqzvvvcgggi3331@@@@vv,X....                   ",
"            +@@@5qqqzvvvcgggi3331@@@@ccw6&...                   ",
"            +@@@5qqqzvvvcgggi3331@@@@XXvv6...                   ",
"            +@@@6rrrxvvvcgggi<<<,++++XXcv4...                   ",
"            #$$$qpppcvvvcsssu&&&%....                           ",
"            #$$$qpppcvvvcsssu&&&%....                           ",
"            #$$$qpppcvvvcsssu&&&%....                           ",
"            #$$$qpppcvvvcsssu&&&%....                           ",
"        ....$&&&essscvvvcsssu&&&%....                           ",
"        ....$&&&essscvvvcsssu&&&%....                           ",
"        ....$&&&essscvvvcsssu&&&%....                           "
};
