/* XPM */
static char *_5d87b359907418fb34f92d2a456329ecLr0yaVxTsSWFkGu[] = {
/* columns rows colors chars-per-pixel */
"64 64 33 1 ",
"  c None",
". c black",
"X c #736610",
"o c #572B42",
"O c #66344E",
"+ c #084275",
"@ c #9E7F1B",
"# c #A44C78",
"$ c #88787C",
"% c #B9941E",
"& c #E7BA25",
"* c #FADF28",
"= c #FDF43F",
"- c #FDFF54",
"; c #0B4D87",
": c #1872B4",
"> c #B45A89",
", c #EB6AA9",
"< c #FF79BA",
"1 c #3C9DCA",
"2 c #7BC5FF",
"3 c #A49D99",
"4 c #C182AA",
"5 c #D1A6A6",
"6 c #EFC0A4",
"7 c #F8D2B9",
"8 c #F295C9",
"9 c #C2BFC1",
"0 c #FFB2DF",
"q c #DBDBDF",
"w c #FEDEC5",
"e c #F2F0F3",
"r c white",
/* pixels */
"                                                                ",
"                                                                ",
"                                                                ",
"                                                                ",
"                              *X    X                           ",
"                           XX****XX*&                           ",
"                           X*<<#***&&                           ",
"                          +X%r<>%%%11                           ",
"                          :X*<<#&*&1:+                          ",
"                         @@@@#@@@@@++                           ",
"                        **********=--@                          ",
"                       ---=****=--======     @                  ",
"                   *  ====------=****====@  @@                  ",
"                  @*===**********************@                  ",
"                   **************************                   ",
"                   @************************@                   ",
"                    *************@*********@                    ",
"                   &****&*******@@&*******&%&                   ",
"                   @***&@&*****@66%*********@                   ",
"                   @***%@w***&@6w6@*********@                   ",
"                    @*&%www@@6wwww6*********                    ",
"                       %w..www..www%*@w5*@                      ",
"                       %w..www..www*&@67*&                      ",
"                      @&w$$www$$www*%@75**@                     ",
"                    @***5wwwwwwwww@&11:&**@  @                  ",
"                     **+1ww545www@&+r1:+******                  ",
"                     @&+15ww,5ww76@+11;+*****@                  ",
"                       %%%%www766%%%%%%*****@@                  ",
"                      #88<#8855<<<##08##***@%@                  ",
"                     #00080X*X0088#00008***&*                   ",
"                     0000#X+1*X00#000000#***@                   ",
"                    #00000*22+X080000000<***                    ",
"                    #00080*11+X080800000<***                    ",
"                    #0#8<0X*&X00<8#00008#***                    ",
"                     08#7#0XX008<578008<&**@                    ",
"                      #w76#0088<5ww6#<<#***                     ",
"                       33e3#o#O3ew76##%%**@                     ",
"                       eee3<o8eeee3<#%&***                      ",
"                       9ee388eeee93888&***@                     ",
"                       3qeq33eee9380008&*****@                  ",
"                      #8993eeee938000008&****                   ",
"                     #009eerre9380000000#&*&                    ",
"                     00033rre938000000000&@                     ",
"                    #0008ereq3800000000000                      ",
"                    000003e998000000000000#                     ",
"                   #00000033<00000#0000#000                     ",
"                   000<00000000000#00000000#                    ",
"                  o000#00000000000000000#000                    ",
"                  o,00#00000000000000000#000                    ",
"                  ,,,#,,00000000,,,O,,,,,#,,o                   ",
"                  ,,,O,,,,,,,,,,,,,o,,,,,o,,,                   ",
"                  ,,,o,,,,,,,,,,,,,o#,,,,o#,,o                  ",
"                  ,,,o,,,,,,,,,,,,,o#,,,,,#,,o                  ",
"                  ,,#o,,,,,,,,,,,,,,O,,,,,O,,,                  ",
"                 o,,#o,,,,,,,,,,,,,,O,,,,,o#,,                  ",
"                 o,,##,,,,,,,,,,,,,#O#,,,#o#,#                  ",
"                 o,#O#,,,,,,,,,,,,,#O#,,,#o###                  ",
"                  ,#O#,,,,,,,,,,,,,#o#,,,##Ooo                  ",
"                    o##,,,,,,,,,,,##o##,#oo                     ",
"                       oo#######ooo                             ",
"                                                                ",
"                                                                ",
"                                                                ",
"                                                                "
};
