/* XPM */
static char *_d658520bb0b4134a5c2b685bb4dac95I6HYq5plqo9TZv05[] = {
/* columns rows colors chars-per-pixel */
"64 64 202 2 ",
"   c None",
".  c #000000",
"X  c #0B0302",
"o  c #0A0A06",
"O  c #150A04",
"+  c #1C0C05",
"@  c #190405",
"#  c #1E1A0A",
"$  c #1D1108",
"%  c #030C14",
"&  c #141916",
"*  c #210E07",
"=  c #280709",
"-  c #2E1309",
";  c #26190B",
":  c #34150A",
">  c #3B190C",
",  c #35190C",
"<  c #3D1E12",
"1  c #3A070E",
"2  c #29250F",
"3  c #3D3A13",
"4  c #362B10",
"5  c #051F34",
"6  c #091928",
"7  c #06243C",
"8  c #1F2427",
"9  c #22353A",
"0  c #421B0D",
"q  c #491F0E",
"w  c #4B0912",
"e  c #590B16",
"r  c #530A14",
"t  c #4E0E0E",
"y  c #761314",
"u  c #620C18",
"i  c #4C210F",
"p  c #55200F",
"a  c #58200E",
"s  c #472B14",
"d  c #5D2612",
"f  c #5E2913",
"g  c #542714",
"h  c #443C18",
"j  c #573917",
"k  c #513F09",
"l  c #622612",
"z  c #612913",
"x  c #6A2D15",
"c  c #642F1A",
"v  c #6C3519",
"b  c #6A371A",
"n  c #733E1D",
"m  c #723518",
"M  c #653522",
"N  c #494217",
"B  c #4C4519",
"V  c #4F4A1D",
"C  c #51451A",
"Z  c #544B1D",
"A  c #594F1F",
"S  c #5C481B",
"D  c #5A501F",
"F  c #644717",
"G  c #76421F",
"H  c #645111",
"J  c #4D4622",
"K  c #5A4F21",
"L  c #575024",
"P  c #5D5321",
"I  c #4B543C",
"U  c #505333",
"Y  c #7A4620",
"T  c #7D4A23",
"R  c #744521",
"E  c #615522",
"W  c #645923",
"Q  c #6E612A",
"!  c #72652C",
"~  c #60613A",
"^  c #0A375C",
"/  c #263B41",
"(  c #093B65",
")  c #0B4271",
"_  c #074173",
"`  c #164773",
"'  c #325378",
"]  c #32566F",
"[  c #3B6B7D",
"{  c #485848",
"}  c #415A55",
"|  c #525E45",
" . c #4A6A69",
".. c #8A1814",
"X. c #881B18",
"o. c #921915",
"O. c #BD2823",
"+. c #D62D27",
"@. c #DD312B",
"#. c #D7302A",
"$. c #E03028",
"%. c #814E25",
"&. c #8C4A21",
"*. c #855327",
"=. c #865528",
"-. c #895629",
";. c #895829",
":. c #895025",
">. c #955D2B",
",. c #995729",
"<. c #A35C2A",
"1. c #9E622C",
"2. c #A76530",
"3. c #BC7334",
"4. c #B77133",
"5. c #B16830",
"6. c #C87B37",
"7. c #D47D37",
"8. c #95823E",
"9. c #CF803A",
"0. c #D5833B",
"q. c #DB853C",
"w. c #DD883D",
"e. c #E28B3F",
"r. c #988542",
"t. c #AA9349",
"y. c #B39B4E",
"u. c #B69D50",
"i. c #BEA655",
"p. c #959E79",
"a. c #E58F41",
"s. c #C9A958",
"d. c #CEB25D",
"f. c #D2B55E",
"g. c #E2BF59",
"h. c #D5B961",
"j. c #D9C97D",
"k. c #DCC06D",
"l. c #E2C266",
"z. c #E5C568",
"x. c #ECCC6C",
"c. c #E6CB6C",
"v. c #F1CF6E",
"b. c #F7D36A",
"n. c #E9CE7E",
"m. c #FBD872",
"M. c #0E5189",
"N. c #0F5A9A",
"B. c #105E9F",
"V. c #0459AA",
"C. c #015DB0",
"Z. c #1464A7",
"A. c #0561B3",
"S. c #0964B4",
"D. c #0968BB",
"F. c #136CB7",
"G. c #126CB8",
"H. c #1C75BC",
"J. c #227ABF",
"K. c #286FA1",
"L. c #5E7689",
"P. c #0D6EC2",
"I. c #066CC6",
"U. c #0573C8",
"Y. c #1373C4",
"T. c #1477CA",
"R. c #1478CC",
"E. c #1580D9",
"W. c #2B83C3",
"Q. c #2986CD",
"!. c #3487C5",
"~. c #4A9ED1",
"^. c #469ACE",
"/. c #59ABD7",
"(. c #6CBCDF",
"). c #73B8D8",
"_. c #61B8E4",
"`. c #75C6E6",
"'. c #7AD0EC",
"]. c #A9AD8D",
"[. c #87A1A2",
"{. c gray74",
"}. c #89B8DD",
"|. c #8AD7EC",
" X c #8BD8EC",
".X c #85D3EA",
"XX c #91DEEF",
"oX c #9CDDEF",
"OX c #93DFF0",
"+X c #87D6EC",
"@X c #8EE1F8",
"#X c #95E2F2",
"$X c #93E4FA",
"%X c #9AE9F8",
"&X c #9AF0FF",
"*X c #A7E6F3",
"=X c #A4FCFF",
"-X c #C7DBEE",
";X c #D6F1F8",
":X c #D9F4FA",
">X c white",
",X c #F0FAFC",
/* pixels */
"                                                                                                                                ",
"                                                    . G.G.G.G.G.C.>X>X>X>X>X>X>X>X>X{.                                          ",
"                                                    . G.G.G.F.F.C.>X>X>X>X>X>X>X>X>X{.                                          ",
"                                                . B.B.G.G.F.A..X`.oXoXoXoXoXoXoXoXoX).V.(   < R 1.4.b g X                       ",
"                                                . G.G.G.G.G.S.#X|. X X X X X X X X X(.G.)   s *.4.0.m z X .                     ",
"                                                . G.G.G.S.#X X X X X X X X X X X X X(.G.)   : f z z T *.7.0..                   ",
"                                                . G.G.G.S.#X X X X X X X X X X X X X(.G._ . - f z f T *.9.0..                   ",
"                                                . G.G.G.S.#X X X X X X|. X X X X X X(.G.L.0.w.e.&.z f d p p .                   ",
"                                                . G.G.G.S.#X|.$X$X$X$X$X$X$X$X$X$XXX(.G.L.q.q.w.&.f z z f z . .                 ",
"                                                . G.G.F.S.#X&X. . . . . . . . . . A.S.G.' p b T *.=.v l *.;.0.0..               ",
"                                                . G.F.F.S.#X&X. . . . . . . . . % G.G.G.' x Y -.=.=.v f *.-.0.0..               ",
"                                                . G.F.F.S.#X|.%X=X. . . . . . . % G.G.G._ . : d f f l l f f . .                 ",
"                                          . . . . I.F.F.S.#X X X&X. . . . . . . % C.C.G.) . > x l l z z f f .                   ",
"                                          ..X.@.#.U.G.G.S.#X X X'.>X>X>X>X. . Y.J.>X-XF.) . . . 0 z z z X .                     ",
"                          . . . . . . . . ..o.@.@.U.D.G.S.#X X X'.>X>X>X>X. . G.!.>X-XF.) . . . 0 x z z X                       ",
"                          b 0.0.0.0.0.v f X . o.X.@.@.U.S.#X X X X X X X$X. . G.J. X(.F.) . : z * . q z X                       ",
"                      . X s 7.0.0.9.9.v c X X ..y #.+.U.A.#X X X X X X X$X. . G.J. X(.G.) . - d * X i z O X .                   ",
"                      * z n *.4.q.>.*.*.*.z f . . e e Y.S.#X X X X X X X$X. . G.J. X(.G.) . . . 0 z z z *.*..                   ",
"                  X + , v Y *.2.3.>.*.*.=.z z . . w 1 T.S.#X X X X X X X$X. . G.J. X(.G.` + + + g v v v G T .                   ",
"                  O z v *.*.*.*.*.*.*.*.*.z z . . . . R.S.#X X X X X X X$X. . F.J. X(.G.' z z z G *.*.*.c z .                   ",
"                  O z v *.T n n n n n *.=.z z . . . . R.G./.~. X X X X X$X^ ^ }.}. X(.G.' z v n n n s s : : .                   ",
"                  O z v *.G z z z z z %.*.z z . . . . R.G.G.A.#X X X X X XG.H.>X,X X(.G.' z n *.v z O . . . .                   ",
"                  X + , v 0 + $ + p z ; ; + + . . N.M.7 5 Y.G.!.W.XX X XXX).(.*XoX!.K.7 6 + * ; $ + X . . . .                   ",
"                      * z : . . . q z X . . . . . R.G.. . T.G.G.C.XX X X X X X X`.F.M.. . . . . . . . . .                       ",
"                      . X + d b Y T *.f p 6.3.. . @X.XV.F.% % Y.G.Y.H.H.J.H.H.H.Z.% % . . . . . . . . . .                       ",
"                    . . . X f G =.=.=.c f 0.0.. . &X XA.Y.. . Y.G.G.G.G.G.F.G.G.B.. . . . . . . . . .                           ",
"                  , q.3.*.=.-.=.*.*.*.z z d d . . Y.A.*X&X. . . . . . . . . . . . . / $X_.Y.6 . . . .                           ",
"                  2 0.3.=.*.*.-.*.*.*.c z z z . . R.S.%X&X. . . . . . . . . . . . . 9 XX/.G.^                                   ",
"                  $ T R f ,.w.&.d 3.w.m f . . E.R.F.F.A.C.R.I.=X&X&X&X&X&X&X&X&X&X&X'.A.( . .                                   ",
"                  $ ;.Y l ,.w.&.l 3.w.m z . . I.D.P.P.Y.Y.Y.D.%XXXXXoX X X#X#X$X$X$X`.I.( . .                                   ",
"                  O f v :.v a R -.z p z z . . m.b.k H . . . . I.A.A.V. X#XA.C.. . . X H S D 4                                   ",
"                  O z v -.G z Y -.v z x x . . b.z.3 B . . . . E.R.F.C.%X%XR.Y.. . . . B C D 2                                   ",
"                  . . + d z z d l z f X . D P x.z.x.v.B W . . . . Y.G.S.P.. . P ! v.v.x.y.A 2                                   ",
"                  . . = f f z z z z x X . A A v.z.z.x.3 Z . . . . D.A.S.D.. . B E z.z.z.t.N ; X .                               ",
"                  = #.O.X.y e e e @ . C D A A x.z.z.z.z.v.B E . . $X|. X$X. X z.z.z.z.z.z.z.8.A #                               ",
"                  - #.O.X.y e e e @ . B A A A x.z.z.z.z.x.B E . . $X X X$X. X z.z.z.z.z.z.z.r.A #                               ",
"                  @ ..y e e e = . . . B D z.z.z.z.l.z.z.z.z.m.. . G.R.. . P P z.z.z.z.z.z.z.z.z.J                               ",
"              . = t X.y e r w @ . o o W W f.f.j.j.n.n.n.n.z.m.. . Z.Z.o o ! ! d.f.j.j.n.n.n.k.d.h                               ",
"              . #.O.r r e 1 . . . h P h.z.D A @X|.>X>X>X>Xg.m.. . . . D C z.l.L ~  X*X>X>X>X].A #                               ",
"              . X.o.e w 1 = @ X . h A f.z.} } @X|.;X;X;X:Xp.].. . 2 # D C z.l.}  . XoX;X;X;X[.} &                               ",
"                  X e 1 . = e = . h A f.z.F.G.#X|. X X|.#XA.R.. . P A K C z.z.F.J.|.|.|. X X~.G.^                               ",
"                  X = @ . X = - : C A f.z.F.F.~.^.XX X X#XA.R.. . P C t.t.8.r.D.H.^./. X X X~.F.5                               ",
"                          . . > z S K h.z.F.F.F.F.#X X X#XC.T.. . P B z.x.L L G.G.G.!.|. X X~.F.7                               ",
"                          < R j z S A f.z.| I P.D.!.W.W.Q.U | . . f.f.! ! s.s.I } G.H.W.W.W.[ I &                               ",
"                          s *.m l S K f.z.A A P.G.G.G.G.G.S E . . x.b.Z C z.l.A U G.F.F.F.D.] D ;                               ",
"                          - z G *.s.l.z.z.l.l.C L L L L P . X . . E C z.l.z.z.l.d.L L L L P K A #                               ",
"                          - z R *.s.z.z.z.z.z.C D D D L P . . . . P B z.z.z.z.z.d.D D D D A A A #                               ",
"                          - l Y *.S B h.z.z.z.v.v.x.m.N W . . m z -.-.C h z.z.z.z.v.v.v.u.D 2 . .                               ",
"                          , c Y =.E Z h.x.z.z.z.z.z.v.N E . . x l -.-.A B x.c.z.z.z.z.z.y.A 2                                   ",
"                          . . : a %.:.C j z.z.z.c.3 B l l . . . . l p :.-.N B z.z.z.i.N j l :                                   ",
"                          . . 0 x %.-.K Z x.x.c.c.h C l z . . . . z f -.-.A P x.x.c.s.C j f -                                   ",
"                          . . . . 0 f %.=.T T 0.7.e.e.. .   . . . c l l f :.=.T *.0.7.e.2.f -                                   ",
"                          . . . . q z *.;.;.-.a.e.0.0..     . . . m x l f -.;.-.>.e.e.e.5.z :                                   ",
"                          . . . . q z l f z l f f . .       . . . . . z l f l f f f f f > . .                                   ",
"                          . . . . i x x x l z f l . . .     . . . . . x x x x z z f l l >                                       ",
"                          . . > z O . . . f z z f z z .     . . . c x . . . . z z z z z >                                       ",
"                          . . > f + . X . f z z z f f .     . . . z x X . . X z l z z f >                                       ",
"                            . 8 . q z %.*.*.*.*.*..             . . . z f *.*.*.*.*.M .                                         ",
"                              . . q z Y T >.>.Y T .             . . . z z T T >.>.T j                                           ",
"                              . . q z z z 0.0.d z .             . . . z z z z 0.6.z q                                           ",
"                              . . * > f z <.<.: : .             . . . i < c c 2.,.: =                                           ",
"                                  . . p z z z .                     . % % b M M j                                               ",
"                                  . . . . . . .                     . . . . . . .                                               ",
"                                                                                                                                "
};
